<svg xmlns="http://www.w3.org/2000/svg" xmlns:xlink="http://www.w3.org/1999/xlink" width="500" zoomAndPan="magnify" viewBox="0 0 375 374.999991" height="500" preserveAspectRatio="xMidYMid meet" version="1.0"><defs><clipPath id="6c8c380826"><path d="M 33.722656 33.722656 L 341.277344 33.722656 L 341.277344 341.277344 L 33.722656 341.277344 Z M 33.722656 33.722656 " clip-rule="nonzero"/></clipPath><clipPath id="935db3951c"><path d="M 187.5 33.722656 C 102.570312 33.722656 33.722656 102.570312 33.722656 187.5 C 33.722656 272.429688 102.570312 341.277344 187.5 341.277344 C 272.429688 341.277344 341.277344 272.429688 341.277344 187.5 C 341.277344 102.570312 272.429688 33.722656 187.5 33.722656 Z M 187.5 33.722656 " clip-rule="nonzero"/></clipPath><clipPath id="9d7bbf8ffb"><path d="M 72.371094 56.25 L 178 56.25 L 178 318.75 L 72.371094 318.75 Z M 72.371094 56.25 " clip-rule="nonzero"/></clipPath><clipPath id="548b2d9c2b"><path d="M 197 56.25 L 317.621094 56.25 L 317.621094 318.75 L 197 318.75 Z M 197 56.25 " clip-rule="nonzero"/></clipPath><clipPath id="5e6edae7f0"><path d="M 108 138 L 181 138 L 181 210 L 108 210 Z M 108 138 " clip-rule="nonzero"/></clipPath><clipPath id="2467f51c91"><path d="M 161.132812 209.015625 L 108.90625 158.03125 L 128.148438 138.316406 L 180.375 189.300781 Z M 161.132812 209.015625 " clip-rule="nonzero"/></clipPath><clipPath id="470ae03175"><path d="M 141 137 L 213 137 L 213 210 L 141 210 Z M 141 137 " clip-rule="nonzero"/></clipPath><clipPath id="209f3e5507"><path d="M 212.171875 157.152344 L 160.886719 209.082031 L 141.285156 189.726562 L 192.570312 137.792969 Z M 212.171875 157.152344 " clip-rule="nonzero"/></clipPath><clipPath id="d7f3d4d044"><path d="M 144.632812 97.574219 L 176.726562 97.574219 L 176.726562 135.496094 L 144.632812 135.496094 Z M 144.632812 97.574219 " clip-rule="nonzero"/></clipPath><linearGradient x1="128" gradientTransform="matrix(-0.125366, 0, 0, -0.125366, 176.72504, 135.496857)" y1="0.00156124" x2="128" gradientUnits="userSpaceOnUse" y2="302.503039" id="6c2121492a"><stop stop-opacity="1" stop-color="rgb(85.098267%, 85.098267%, 85.098267%)" offset="0"/><stop stop-opacity="1" stop-color="rgb(84.941101%, 84.941101%, 84.941101%)" offset="0.0078125"/><stop stop-opacity="1" stop-color="rgb(84.625244%, 84.625244%, 84.625244%)" offset="0.015625"/><stop stop-opacity="1" stop-color="rgb(84.309387%, 84.309387%, 84.309387%)" offset="0.0234375"/><stop stop-opacity="1" stop-color="rgb(83.99353%, 83.99353%, 83.99353%)" offset="0.03125"/><stop stop-opacity="1" stop-color="rgb(83.677673%, 83.677673%, 83.677673%)" offset="0.0390625"/><stop stop-opacity="1" stop-color="rgb(83.361816%, 83.361816%, 83.361816%)" offset="0.046875"/><stop stop-opacity="1" stop-color="rgb(83.047485%, 83.047485%, 83.047485%)" offset="0.0546875"/><stop stop-opacity="1" stop-color="rgb(82.731628%, 82.731628%, 82.731628%)" offset="0.0625"/><stop stop-opacity="1" stop-color="rgb(82.415771%, 82.415771%, 82.415771%)" offset="0.0703125"/><stop stop-opacity="1" stop-color="rgb(82.099915%, 82.099915%, 82.099915%)" offset="0.078125"/><stop stop-opacity="1" stop-color="rgb(81.784058%, 81.784058%, 81.784058%)" offset="0.0859375"/><stop stop-opacity="1" stop-color="rgb(81.468201%, 81.468201%, 81.468201%)" offset="0.09375"/><stop stop-opacity="1" stop-color="rgb(81.152344%, 81.152344%, 81.152344%)" offset="0.101563"/><stop stop-opacity="1" stop-color="rgb(80.838013%, 80.838013%, 80.838013%)" offset="0.109375"/><stop stop-opacity="1" stop-color="rgb(80.522156%, 80.522156%, 80.522156%)" offset="0.117188"/><stop stop-opacity="1" stop-color="rgb(80.206299%, 80.206299%, 80.206299%)" offset="0.125"/><stop stop-opacity="1" stop-color="rgb(79.890442%, 79.890442%, 79.890442%)" offset="0.132812"/><stop stop-opacity="1" stop-color="rgb(79.574585%, 79.574585%, 79.574585%)" offset="0.140625"/><stop stop-opacity="1" stop-color="rgb(79.258728%, 79.258728%, 79.258728%)" offset="0.148438"/><stop stop-opacity="1" stop-color="rgb(78.944397%, 78.944397%, 78.944397%)" offset="0.15625"/><stop stop-opacity="1" stop-color="rgb(78.62854%, 78.62854%, 78.62854%)" offset="0.164062"/><stop stop-opacity="1" stop-color="rgb(78.312683%, 78.312683%, 78.312683%)" offset="0.171875"/><stop stop-opacity="1" stop-color="rgb(77.996826%, 77.996826%, 77.996826%)" offset="0.179688"/><stop stop-opacity="1" stop-color="rgb(77.680969%, 77.680969%, 77.680969%)" offset="0.1875"/><stop stop-opacity="1" stop-color="rgb(77.365112%, 77.365112%, 77.365112%)" offset="0.195312"/><stop stop-opacity="1" stop-color="rgb(77.049255%, 77.049255%, 77.049255%)" offset="0.203125"/><stop stop-opacity="1" stop-color="rgb(76.734924%, 76.734924%, 76.734924%)" offset="0.210938"/><stop stop-opacity="1" stop-color="rgb(76.419067%, 76.419067%, 76.419067%)" offset="0.21875"/><stop stop-opacity="1" stop-color="rgb(76.10321%, 76.10321%, 76.10321%)" offset="0.226562"/><stop stop-opacity="1" stop-color="rgb(75.787354%, 75.787354%, 75.787354%)" offset="0.234375"/><stop stop-opacity="1" stop-color="rgb(75.471497%, 75.471497%, 75.471497%)" offset="0.242188"/><stop stop-opacity="1" stop-color="rgb(75.15564%, 75.15564%, 75.15564%)" offset="0.25"/><stop stop-opacity="1" stop-color="rgb(74.841309%, 74.841309%, 74.841309%)" offset="0.257813"/><stop stop-opacity="1" stop-color="rgb(74.525452%, 74.525452%, 74.525452%)" offset="0.265625"/><stop stop-opacity="1" stop-color="rgb(74.209595%, 74.209595%, 74.209595%)" offset="0.273438"/><stop stop-opacity="1" stop-color="rgb(73.893738%, 73.893738%, 73.893738%)" offset="0.28125"/><stop stop-opacity="1" stop-color="rgb(73.577881%, 73.577881%, 73.577881%)" offset="0.289062"/><stop stop-opacity="1" stop-color="rgb(73.262024%, 73.262024%, 73.262024%)" offset="0.296875"/><stop stop-opacity="1" stop-color="rgb(72.946167%, 72.946167%, 72.946167%)" offset="0.304688"/><stop stop-opacity="1" stop-color="rgb(72.631836%, 72.631836%, 72.631836%)" offset="0.3125"/><stop stop-opacity="1" stop-color="rgb(72.315979%, 72.315979%, 72.315979%)" offset="0.320312"/><stop stop-opacity="1" stop-color="rgb(72.000122%, 72.000122%, 72.000122%)" offset="0.328125"/><stop stop-opacity="1" stop-color="rgb(71.684265%, 71.684265%, 71.684265%)" offset="0.335937"/><stop stop-opacity="1" stop-color="rgb(71.368408%, 71.368408%, 71.368408%)" offset="0.34375"/><stop stop-opacity="1" stop-color="rgb(71.052551%, 71.052551%, 71.052551%)" offset="0.351562"/><stop stop-opacity="1" stop-color="rgb(70.73822%, 70.73822%, 70.73822%)" offset="0.359375"/><stop stop-opacity="1" stop-color="rgb(70.422363%, 70.422363%, 70.422363%)" offset="0.367188"/><stop stop-opacity="1" stop-color="rgb(70.106506%, 70.106506%, 70.106506%)" offset="0.375"/><stop stop-opacity="1" stop-color="rgb(69.790649%, 69.790649%, 69.790649%)" offset="0.382812"/><stop stop-opacity="1" stop-color="rgb(69.474792%, 69.474792%, 69.474792%)" offset="0.390625"/><stop stop-opacity="1" stop-color="rgb(69.158936%, 69.158936%, 69.158936%)" offset="0.398437"/><stop stop-opacity="1" stop-color="rgb(68.843079%, 68.843079%, 68.843079%)" offset="0.40625"/><stop stop-opacity="1" stop-color="rgb(68.528748%, 68.528748%, 68.528748%)" offset="0.414063"/><stop stop-opacity="1" stop-color="rgb(68.212891%, 68.212891%, 68.212891%)" offset="0.421875"/><stop stop-opacity="1" stop-color="rgb(67.897034%, 67.897034%, 67.897034%)" offset="0.429688"/><stop stop-opacity="1" stop-color="rgb(67.581177%, 67.581177%, 67.581177%)" offset="0.4375"/><stop stop-opacity="1" stop-color="rgb(67.26532%, 67.26532%, 67.26532%)" offset="0.445312"/><stop stop-opacity="1" stop-color="rgb(66.949463%, 66.949463%, 66.949463%)" offset="0.453125"/><stop stop-opacity="1" stop-color="rgb(66.635132%, 66.635132%, 66.635132%)" offset="0.460937"/><stop stop-opacity="1" stop-color="rgb(66.319275%, 66.319275%, 66.319275%)" offset="0.46875"/><stop stop-opacity="1" stop-color="rgb(66.003418%, 66.003418%, 66.003418%)" offset="0.476563"/><stop stop-opacity="1" stop-color="rgb(65.687561%, 65.687561%, 65.687561%)" offset="0.484375"/><stop stop-opacity="1" stop-color="rgb(65.371704%, 65.371704%, 65.371704%)" offset="0.492188"/><stop stop-opacity="1" stop-color="rgb(65.055847%, 65.055847%, 65.055847%)" offset="0.5"/><stop stop-opacity="1" stop-color="rgb(64.73999%, 64.73999%, 64.73999%)" offset="0.507812"/><stop stop-opacity="1" stop-color="rgb(64.425659%, 64.425659%, 64.425659%)" offset="0.515625"/><stop stop-opacity="1" stop-color="rgb(64.109802%, 64.109802%, 64.109802%)" offset="0.523437"/><stop stop-opacity="1" stop-color="rgb(63.793945%, 63.793945%, 63.793945%)" offset="0.53125"/><stop stop-opacity="1" stop-color="rgb(63.478088%, 63.478088%, 63.478088%)" offset="0.539062"/><stop stop-opacity="1" stop-color="rgb(63.162231%, 63.162231%, 63.162231%)" offset="0.546875"/><stop stop-opacity="1" stop-color="rgb(62.846375%, 62.846375%, 62.846375%)" offset="0.554687"/><stop stop-opacity="1" stop-color="rgb(62.532043%, 62.532043%, 62.532043%)" offset="0.5625"/><stop stop-opacity="1" stop-color="rgb(62.216187%, 62.216187%, 62.216187%)" offset="0.570312"/><stop stop-opacity="1" stop-color="rgb(61.90033%, 61.90033%, 61.90033%)" offset="0.578125"/><stop stop-opacity="1" stop-color="rgb(61.584473%, 61.584473%, 61.584473%)" offset="0.585938"/><stop stop-opacity="1" stop-color="rgb(61.268616%, 61.268616%, 61.268616%)" offset="0.59375"/><stop stop-opacity="1" stop-color="rgb(60.952759%, 60.952759%, 60.952759%)" offset="0.601562"/><stop stop-opacity="1" stop-color="rgb(60.636902%, 60.636902%, 60.636902%)" offset="0.609375"/><stop stop-opacity="1" stop-color="rgb(60.322571%, 60.322571%, 60.322571%)" offset="0.617188"/><stop stop-opacity="1" stop-color="rgb(60.006714%, 60.006714%, 60.006714%)" offset="0.625"/><stop stop-opacity="1" stop-color="rgb(59.690857%, 59.690857%, 59.690857%)" offset="0.632812"/><stop stop-opacity="1" stop-color="rgb(59.375%, 59.375%, 59.375%)" offset="0.640625"/><stop stop-opacity="1" stop-color="rgb(59.059143%, 59.059143%, 59.059143%)" offset="0.648437"/><stop stop-opacity="1" stop-color="rgb(58.743286%, 58.743286%, 58.743286%)" offset="0.65625"/><stop stop-opacity="1" stop-color="rgb(58.428955%, 58.428955%, 58.428955%)" offset="0.664062"/><stop stop-opacity="1" stop-color="rgb(58.113098%, 58.113098%, 58.113098%)" offset="0.671875"/><stop stop-opacity="1" stop-color="rgb(57.797241%, 57.797241%, 57.797241%)" offset="0.679687"/><stop stop-opacity="1" stop-color="rgb(57.481384%, 57.481384%, 57.481384%)" offset="0.6875"/><stop stop-opacity="1" stop-color="rgb(57.165527%, 57.165527%, 57.165527%)" offset="0.695313"/><stop stop-opacity="1" stop-color="rgb(56.84967%, 56.84967%, 56.84967%)" offset="0.703125"/><stop stop-opacity="1" stop-color="rgb(56.533813%, 56.533813%, 56.533813%)" offset="0.710938"/><stop stop-opacity="1" stop-color="rgb(56.219482%, 56.219482%, 56.219482%)" offset="0.71875"/><stop stop-opacity="1" stop-color="rgb(55.903625%, 55.903625%, 55.903625%)" offset="0.726562"/><stop stop-opacity="1" stop-color="rgb(55.587769%, 55.587769%, 55.587769%)" offset="0.734375"/><stop stop-opacity="1" stop-color="rgb(55.271912%, 55.271912%, 55.271912%)" offset="0.742188"/><stop stop-opacity="1" stop-color="rgb(54.956055%, 54.956055%, 54.956055%)" offset="0.75"/><stop stop-opacity="1" stop-color="rgb(54.640198%, 54.640198%, 54.640198%)" offset="0.757812"/><stop stop-opacity="1" stop-color="rgb(54.324341%, 54.324341%, 54.324341%)" offset="0.765625"/><stop stop-opacity="1" stop-color="rgb(54.01001%, 54.01001%, 54.01001%)" offset="0.773437"/><stop stop-opacity="1" stop-color="rgb(53.694153%, 53.694153%, 53.694153%)" offset="0.78125"/><stop stop-opacity="1" stop-color="rgb(53.378296%, 53.378296%, 53.378296%)" offset="0.789062"/><stop stop-opacity="1" stop-color="rgb(53.062439%, 53.062439%, 53.062439%)" offset="0.796875"/><stop stop-opacity="1" stop-color="rgb(52.746582%, 52.746582%, 52.746582%)" offset="0.804687"/><stop stop-opacity="1" stop-color="rgb(52.430725%, 52.430725%, 52.430725%)" offset="0.8125"/><stop stop-opacity="1" stop-color="rgb(52.116394%, 52.116394%, 52.116394%)" offset="0.820313"/><stop stop-opacity="1" stop-color="rgb(51.800537%, 51.800537%, 51.800537%)" offset="0.828125"/><stop stop-opacity="1" stop-color="rgb(51.48468%, 51.48468%, 51.48468%)" offset="0.835938"/><stop stop-opacity="1" stop-color="rgb(51.168823%, 51.168823%, 51.168823%)" offset="0.84375"/><stop stop-opacity="1" stop-color="rgb(50.852966%, 50.852966%, 50.852966%)" offset="0.851562"/><stop stop-opacity="1" stop-color="rgb(50.537109%, 50.537109%, 50.537109%)" offset="0.859375"/><stop stop-opacity="1" stop-color="rgb(50.221252%, 50.221252%, 50.221252%)" offset="0.867188"/><stop stop-opacity="1" stop-color="rgb(49.906921%, 49.906921%, 49.906921%)" offset="0.875"/><stop stop-opacity="1" stop-color="rgb(49.591064%, 49.591064%, 49.591064%)" offset="0.882812"/><stop stop-opacity="1" stop-color="rgb(49.275208%, 49.275208%, 49.275208%)" offset="0.890625"/><stop stop-opacity="1" stop-color="rgb(48.959351%, 48.959351%, 48.959351%)" offset="0.898438"/><stop stop-opacity="1" stop-color="rgb(48.643494%, 48.643494%, 48.643494%)" offset="0.90625"/><stop stop-opacity="1" stop-color="rgb(48.327637%, 48.327637%, 48.327637%)" offset="0.914062"/><stop stop-opacity="1" stop-color="rgb(48.013306%, 48.013306%, 48.013306%)" offset="0.921875"/><stop stop-opacity="1" stop-color="rgb(47.697449%, 47.697449%, 47.697449%)" offset="0.929687"/><stop stop-opacity="1" stop-color="rgb(47.381592%, 47.381592%, 47.381592%)" offset="0.9375"/><stop stop-opacity="1" stop-color="rgb(47.065735%, 47.065735%, 47.065735%)" offset="0.945313"/><stop stop-opacity="1" stop-color="rgb(46.749878%, 46.749878%, 46.749878%)" offset="0.953125"/><stop stop-opacity="1" stop-color="rgb(46.434021%, 46.434021%, 46.434021%)" offset="0.960938"/><stop stop-opacity="1" stop-color="rgb(46.118164%, 46.118164%, 46.118164%)" offset="0.96875"/><stop stop-opacity="1" stop-color="rgb(45.803833%, 45.803833%, 45.803833%)" offset="0.976562"/><stop stop-opacity="1" stop-color="rgb(45.487976%, 45.487976%, 45.487976%)" offset="0.984375"/><stop stop-opacity="1" stop-color="rgb(45.172119%, 45.172119%, 45.172119%)" offset="0.992188"/><stop stop-opacity="1" stop-color="rgb(44.856262%, 44.856262%, 44.856262%)" offset="1"/></linearGradient><clipPath id="f4c4463d30"><path d="M 144.632812 134.742188 L 176.726562 134.742188 L 176.726562 187.496094 L 144.632812 187.496094 Z M 144.632812 134.742188 " clip-rule="nonzero"/></clipPath></defs><g clip-path="url(#6c8c380826)"><g clip-path="url(#935db3951c)"><path fill="#000000" d="M 33.722656 33.722656 L 341.277344 33.722656 L 341.277344 341.277344 L 33.722656 341.277344 Z M 33.722656 33.722656 " fill-opacity="1" fill-rule="nonzero"/></g></g><g clip-path="url(#9d7bbf8ffb)"><path fill="#737373" d="M 107.128906 83.519531 C 94.738281 93.171875 84.117188 104.996094 75.84375 118.417969 L 75.84375 256.292969 C 79.214844 261.761719 82.976562 266.96875 87.09375 271.871094 L 72.429688 286.535156 L 94.550781 308.65625 L 109.90625 293.300781 C 120.71875 301.277344 132.800781 307.636719 145.792969 312.023438 C 155.738281 315.382812 166.21875 317.585938 177.074219 318.472656 L 177.074219 56.242188 C 166.21875 57.125 155.738281 59.328125 145.792969 62.6875 C 131.675781 67.457031 118.636719 74.550781 107.128906 83.519531 Z M 145.792969 276.683594 C 141.503906 274.660156 137.386719 272.335938 133.46875 269.738281 L 139.65625 263.550781 L 117.535156 241.429688 L 110.414062 248.546875 C 109.28125 247.113281 108.183594 245.644531 107.128906 244.144531 L 107.128906 130.566406 C 116.933594 116.644531 130.25 105.371094 145.792969 98.027344 Z M 145.792969 276.683594 " fill-opacity="1" fill-rule="nonzero"/></g><g clip-path="url(#548b2d9c2b)"><path fill="#737373" d="M 316.828125 171.972656 L 228.3125 171.972656 L 228.3125 98.289062 C 229.367188 98.789062 230.410156 99.304688 231.445312 99.839844 C 231.761719 100 232.074219 100.164062 232.390625 100.332031 C 233.460938 100.902344 234.523438 101.488281 235.574219 102.097656 C 235.890625 102.28125 236.207031 102.464844 236.523438 102.652344 C 236.832031 102.835938 237.136719 103.019531 237.445312 103.207031 C 237.722656 103.375 238.003906 103.550781 238.28125 103.722656 C 238.480469 103.847656 238.675781 103.96875 238.871094 104.09375 C 239.917969 104.753906 240.953125 105.433594 241.972656 106.132812 C 242.144531 106.253906 242.320312 106.375 242.492188 106.496094 C 244.058594 107.582031 245.589844 108.714844 247.089844 109.890625 C 247.292969 110.046875 247.492188 110.207031 247.695312 110.367188 C 248.085938 110.679688 248.476562 110.996094 248.863281 111.316406 C 249.144531 111.542969 249.421875 111.777344 249.699219 112.007812 C 249.992188 112.253906 250.285156 112.503906 250.578125 112.753906 C 250.910156 113.042969 251.242188 113.332031 251.570312 113.625 C 251.769531 113.800781 251.96875 113.976562 252.164062 114.152344 C 252.324219 114.296875 252.488281 114.445312 252.648438 114.589844 C 252.832031 114.757812 253.011719 114.921875 253.191406 115.089844 C 254.605469 116.394531 255.976562 117.738281 257.3125 119.125 C 257.542969 119.363281 257.773438 119.605469 258.003906 119.847656 C 258.054688 119.902344 258.105469 119.957031 258.15625 120.011719 C 258.382812 120.253906 258.609375 120.492188 258.832031 120.738281 C 259.765625 121.75 260.679688 122.785156 261.570312 123.835938 C 261.730469 124.023438 261.886719 124.214844 262.042969 124.402344 C 262.230469 124.621094 262.410156 124.84375 262.59375 125.066406 C 262.738281 125.242188 262.882812 125.414062 263.019531 125.59375 C 263.882812 126.65625 264.71875 127.734375 265.535156 128.835938 C 265.714844 129.078125 265.890625 129.316406 266.066406 129.558594 C 267.367188 131.34375 268.609375 133.175781 269.789062 135.050781 C 269.894531 135.210938 269.996094 135.375 270.09375 135.539062 C 270.496094 136.183594 270.894531 136.835938 271.28125 137.496094 C 271.429688 137.742188 271.574219 137.992188 271.71875 138.242188 C 272.164062 139.007812 272.597656 139.78125 273.019531 140.5625 C 273.148438 140.796875 273.277344 141.035156 273.398438 141.273438 C 273.988281 142.371094 274.554688 143.488281 275.097656 144.613281 C 275.25 144.921875 275.398438 145.234375 275.542969 145.546875 C 275.742188 145.960938 275.933594 146.371094 276.121094 146.789062 C 276.269531 147.109375 276.410156 147.433594 276.554688 147.753906 C 276.675781 148.027344 276.792969 148.292969 276.910156 148.570312 C 276.996094 148.769531 277.078125 148.96875 277.164062 149.171875 C 277.222656 149.304688 277.28125 149.4375 277.332031 149.570312 C 277.410156 149.753906 277.484375 149.933594 277.5625 150.117188 C 277.683594 150.40625 277.800781 150.699219 277.914062 150.992188 L 308.304688 138.582031 C 294.042969 103.09375 264.753906 75.257812 228.3125 62.949219 C 218.367188 59.589844 207.882812 57.386719 197.03125 56.503906 L 197.03125 203.261719 L 283.699219 203.261719 C 283.652344 203.566406 283.601562 203.871094 283.546875 204.175781 C 283.480469 204.589844 283.40625 205.003906 283.332031 205.417969 C 283.277344 205.710938 283.222656 206.007812 283.167969 206.296875 C 283.097656 206.671875 283.023438 207.042969 282.945312 207.417969 C 282.886719 207.710938 282.824219 208.003906 282.765625 208.292969 C 282.699219 208.609375 282.625 208.929688 282.554688 209.246094 C 282.519531 209.414062 282.480469 209.582031 282.441406 209.746094 C 282.386719 209.996094 282.328125 210.246094 282.269531 210.492188 C 282.1875 210.828125 282.109375 211.164062 282.023438 211.496094 C 282.023438 211.503906 282.023438 211.511719 282.019531 211.519531 C 281.9375 211.855469 281.851562 212.191406 281.765625 212.523438 C 281.710938 212.730469 281.65625 212.9375 281.601562 213.144531 C 281.574219 213.25 281.546875 213.355469 281.515625 213.460938 C 281.46875 213.632812 281.421875 213.808594 281.371094 213.984375 C 281.3125 214.203125 281.25 214.425781 281.1875 214.644531 C 281.101562 214.945312 281.019531 215.242188 280.929688 215.539062 C 280.84375 215.832031 280.757812 216.121094 280.667969 216.410156 C 280.367188 217.394531 280.054688 218.375 279.722656 219.347656 C 279.628906 219.625 279.535156 219.902344 279.4375 220.175781 C 279.34375 220.453125 279.246094 220.726562 279.144531 221 C 279.0625 221.238281 278.976562 221.476562 278.886719 221.710938 C 278.855469 221.800781 278.824219 221.886719 278.789062 221.972656 C 278.707031 222.199219 278.625 222.417969 278.542969 222.640625 C 278.539062 222.644531 278.539062 222.644531 278.539062 222.644531 C 278.4375 222.917969 278.335938 223.1875 278.226562 223.453125 C 278.015625 223.996094 277.800781 224.539062 277.578125 225.074219 C 277.496094 225.285156 277.40625 225.5 277.316406 225.707031 C 277.183594 226.03125 277.046875 226.355469 276.902344 226.679688 C 276.789062 226.945312 276.675781 227.210938 276.558594 227.476562 C 276.089844 228.535156 275.605469 229.585938 275.097656 230.625 C 274.972656 230.886719 274.847656 231.144531 274.71875 231.402344 C 274.609375 231.621094 274.503906 231.835938 274.394531 232.050781 C 274.277344 232.28125 274.164062 232.507812 274.042969 232.734375 C 273.914062 232.992188 273.78125 233.246094 273.648438 233.496094 C 273.464844 233.847656 273.28125 234.199219 273.089844 234.542969 C 272.964844 234.777344 272.835938 235.011719 272.707031 235.246094 C 272.582031 235.472656 272.453125 235.699219 272.328125 235.929688 C 272.097656 236.339844 271.859375 236.753906 271.621094 237.164062 C 271.472656 237.417969 271.324219 237.671875 271.175781 237.925781 C 271 238.21875 270.824219 238.511719 270.644531 238.808594 C 270.527344 239.003906 270.40625 239.195312 270.285156 239.390625 C 269.59375 240.519531 268.875 241.628906 268.136719 242.726562 C 268.019531 242.898438 267.902344 243.070312 267.789062 243.238281 C 267.667969 243.417969 267.546875 243.59375 267.421875 243.769531 C 267.257812 244.007812 267.09375 244.246094 266.925781 244.480469 C 266.375 245.261719 265.8125 246.035156 265.238281 246.800781 C 265.101562 246.984375 264.960938 247.167969 264.820312 247.351562 C 263.746094 248.765625 262.636719 250.148438 261.484375 251.5 C 261.277344 251.75 261.0625 251.996094 260.847656 252.242188 C 260.636719 252.488281 260.421875 252.734375 260.207031 252.976562 C 259.667969 253.585938 259.121094 254.1875 258.570312 254.78125 C 258.40625 254.964844 258.234375 255.148438 258.0625 255.328125 C 257.800781 255.601562 257.542969 255.875 257.28125 256.148438 C 257.007812 256.429688 256.734375 256.710938 256.457031 256.992188 C 256.109375 257.34375 255.757812 257.691406 255.40625 258.039062 C 255.210938 258.230469 255.015625 258.421875 254.820312 258.613281 C 254.074219 259.328125 253.324219 260.035156 252.558594 260.730469 C 252.160156 261.09375 251.757812 261.449219 251.355469 261.808594 C 251.257812 261.890625 251.164062 261.976562 251.066406 262.058594 C 250.871094 262.230469 250.671875 262.398438 250.476562 262.570312 C 250.226562 262.78125 249.980469 262.992188 249.730469 263.203125 C 249.480469 263.414062 249.230469 263.621094 248.980469 263.828125 C 248.71875 264.042969 248.457031 264.257812 248.191406 264.472656 C 247.949219 264.667969 247.707031 264.863281 247.457031 265.058594 C 247.273438 265.207031 247.085938 265.351562 246.898438 265.5 C 246.570312 265.753906 246.242188 266.007812 245.914062 266.257812 C 245.65625 266.453125 245.394531 266.648438 245.132812 266.84375 C 244.828125 267.074219 244.519531 267.300781 244.210938 267.523438 C 243.992188 267.683594 243.769531 267.84375 243.550781 268 C 243.285156 268.1875 243.019531 268.378906 242.75 268.566406 C 242.484375 268.75 242.214844 268.9375 241.945312 269.121094 C 241.765625 269.246094 241.582031 269.371094 241.402344 269.492188 C 241.292969 269.570312 241.183594 269.640625 241.074219 269.714844 C 241.003906 269.761719 240.9375 269.804688 240.871094 269.847656 C 240.460938 270.125 240.046875 270.394531 239.632812 270.660156 C 239.308594 270.875 238.980469 271.082031 238.648438 271.289062 C 238.390625 271.449219 238.132812 271.609375 237.878906 271.765625 C 237.851562 271.785156 237.824219 271.800781 237.792969 271.816406 C 237.53125 271.980469 237.261719 272.144531 236.996094 272.304688 C 236.714844 272.472656 236.433594 272.640625 236.152344 272.804688 C 235.910156 272.945312 235.671875 273.085938 235.433594 273.222656 C 234.613281 273.695312 233.785156 274.15625 232.949219 274.605469 C 232.78125 274.699219 232.609375 274.789062 232.441406 274.878906 C 232.292969 274.957031 232.148438 275.035156 232 275.113281 C 231.609375 275.320312 231.21875 275.519531 230.824219 275.71875 C 230.582031 275.84375 230.335938 275.964844 230.089844 276.085938 C 229.5 276.382812 228.910156 276.667969 228.3125 276.949219 L 228.3125 234.542969 L 197.027344 234.542969 L 197.027344 318.734375 C 207.882812 317.847656 218.363281 315.644531 228.3125 312.285156 C 265.46875 299.738281 295.191406 271.039062 309.128906 234.542969 C 312.917969 224.632812 315.535156 214.148438 316.824219 203.257812 C 317.433594 198.128906 317.746094 192.910156 317.746094 187.617188 C 317.746094 182.324219 317.4375 177.105469 316.828125 171.972656 Z M 316.828125 171.972656 " fill-opacity="1" fill-rule="nonzero"/></g><g clip-path="url(#5e6edae7f0)"><g clip-path="url(#2467f51c91)"><path fill="#d9d9d9" d="M 161.132812 209.015625 L 108.925781 158.050781 L 128.167969 138.335938 L 180.375 189.300781 Z M 161.132812 209.015625 " fill-opacity="1" fill-rule="nonzero"/></g></g><g clip-path="url(#470ae03175)"><g clip-path="url(#209f3e5507)"><path fill="#d9d9d9" d="M 212.171875 157.152344 L 160.90625 209.0625 L 141.304688 189.707031 L 192.570312 137.792969 Z M 212.171875 157.152344 " fill-opacity="1" fill-rule="nonzero"/></g></g><g clip-path="url(#d7f3d4d044)"><path fill="url(#6c2121492a)" d="M 176.726562 135.496094 L 176.726562 97.574219 L 144.632812 97.574219 L 144.632812 135.496094 Z M 176.726562 135.496094 " fill-rule="nonzero"/></g><g clip-path="url(#f4c4463d30)"><path fill="#d9d9d9" d="M 176.726562 187.496094 L 144.632812 187.496094 L 144.632812 134.714844 L 176.726562 134.714844 Z M 176.726562 187.496094 " fill-opacity="1" fill-rule="nonzero"/></g></svg>